<mxfile host="app.diagrams.net" agent="Mozilla/5.0 (Macintosh; Intel Mac OS X 10_15_7) AppleWebKit/537.36 (KHTML, like Gecko) Chrome/131.0.0.0 Safari/537.36" version="25.0.3">
  <diagram name="Page-1" id="snZgAEhU_gvDJ50gjJC1">
    <mxGraphModel dx="954" dy="605" grid="1" gridSize="10" guides="1" tooltips="1" connect="1" arrows="1" fold="1" page="1" pageScale="1" pageWidth="850" pageHeight="1100" math="0" shadow="0">
      <root>
        <mxCell id="0" />
        <mxCell id="1" parent="0" />
        <mxCell id="oB71KDWY1GNKsySMPf54-35" style="edgeStyle=orthogonalEdgeStyle;rounded=0;orthogonalLoop=1;jettySize=auto;html=1;" edge="1" parent="1" source="oB71KDWY1GNKsySMPf54-33" target="oB71KDWY1GNKsySMPf54-34">
          <mxGeometry relative="1" as="geometry" />
        </mxCell>
        <mxCell id="oB71KDWY1GNKsySMPf54-37" style="edgeStyle=orthogonalEdgeStyle;rounded=0;orthogonalLoop=1;jettySize=auto;html=1;" edge="1" parent="1" source="oB71KDWY1GNKsySMPf54-33" target="oB71KDWY1GNKsySMPf54-36">
          <mxGeometry relative="1" as="geometry" />
        </mxCell>
        <mxCell id="oB71KDWY1GNKsySMPf54-33" value="" style="rounded=0;whiteSpace=wrap;html=1;" vertex="1" parent="1">
          <mxGeometry x="168" y="840" width="120" height="60" as="geometry" />
        </mxCell>
        <mxCell id="oB71KDWY1GNKsySMPf54-32" value="" style="rounded=0;whiteSpace=wrap;html=1;" vertex="1" parent="1">
          <mxGeometry x="140" y="820" width="120" height="60" as="geometry" />
        </mxCell>
        <mxCell id="oB71KDWY1GNKsySMPf54-46" style="edgeStyle=orthogonalEdgeStyle;rounded=0;orthogonalLoop=1;jettySize=auto;html=1;" edge="1" parent="1" source="oB71KDWY1GNKsySMPf54-21">
          <mxGeometry relative="1" as="geometry">
            <mxPoint x="660" y="830" as="targetPoint" />
            <Array as="points">
              <mxPoint x="661" y="620" />
            </Array>
          </mxGeometry>
        </mxCell>
        <mxCell id="oB71KDWY1GNKsySMPf54-52" style="edgeStyle=orthogonalEdgeStyle;rounded=0;orthogonalLoop=1;jettySize=auto;html=1;entryX=0.75;entryY=0;entryDx=0;entryDy=0;" edge="1" parent="1" source="oB71KDWY1GNKsySMPf54-21" target="oB71KDWY1GNKsySMPf54-40">
          <mxGeometry relative="1" as="geometry">
            <Array as="points">
              <mxPoint x="780" y="1200" />
            </Array>
          </mxGeometry>
        </mxCell>
        <mxCell id="oB71KDWY1GNKsySMPf54-21" value="" style="rounded=0;whiteSpace=wrap;html=1;" vertex="1" parent="1">
          <mxGeometry x="700" y="590" width="120" height="60" as="geometry" />
        </mxCell>
        <mxCell id="oB71KDWY1GNKsySMPf54-45" style="edgeStyle=orthogonalEdgeStyle;rounded=0;orthogonalLoop=1;jettySize=auto;html=1;" edge="1" parent="1" source="oB71KDWY1GNKsySMPf54-20" target="oB71KDWY1GNKsySMPf54-36">
          <mxGeometry relative="1" as="geometry">
            <Array as="points">
              <mxPoint x="500" y="610" />
              <mxPoint x="500" y="1030" />
            </Array>
          </mxGeometry>
        </mxCell>
        <mxCell id="oB71KDWY1GNKsySMPf54-20" value="" style="rounded=0;whiteSpace=wrap;html=1;" vertex="1" parent="1">
          <mxGeometry x="520" y="580" width="120" height="60" as="geometry" />
        </mxCell>
        <mxCell id="oB71KDWY1GNKsySMPf54-44" style="edgeStyle=orthogonalEdgeStyle;rounded=0;orthogonalLoop=1;jettySize=auto;html=1;" edge="1" parent="1" source="oB71KDWY1GNKsySMPf54-19" target="oB71KDWY1GNKsySMPf54-34">
          <mxGeometry relative="1" as="geometry">
            <Array as="points">
              <mxPoint x="320" y="610" />
              <mxPoint x="320" y="1010" />
            </Array>
          </mxGeometry>
        </mxCell>
        <mxCell id="oB71KDWY1GNKsySMPf54-19" value="" style="rounded=0;whiteSpace=wrap;html=1;" vertex="1" parent="1">
          <mxGeometry x="330.5" y="580" width="120" height="60" as="geometry" />
        </mxCell>
        <mxCell id="oB71KDWY1GNKsySMPf54-18" value="" style="rounded=0;whiteSpace=wrap;html=1;" vertex="1" parent="1">
          <mxGeometry x="130" y="570" width="120" height="60" as="geometry" />
        </mxCell>
        <mxCell id="oB71KDWY1GNKsySMPf54-3" value="" style="edgeStyle=orthogonalEdgeStyle;rounded=0;orthogonalLoop=1;jettySize=auto;html=1;" edge="1" parent="1" source="oB71KDWY1GNKsySMPf54-1" target="oB71KDWY1GNKsySMPf54-2">
          <mxGeometry relative="1" as="geometry" />
        </mxCell>
        <mxCell id="oB71KDWY1GNKsySMPf54-1" value="Actor" style="shape=umlActor;verticalLabelPosition=bottom;verticalAlign=top;html=1;outlineConnect=0;" vertex="1" parent="1">
          <mxGeometry x="350" y="50" width="30" height="60" as="geometry" />
        </mxCell>
        <mxCell id="oB71KDWY1GNKsySMPf54-2" value="" style="outlineConnect=0;dashed=0;verticalLabelPosition=bottom;verticalAlign=top;align=center;html=1;shape=mxgraph.aws3.classic_load_balancer;fillColor=#F58534;gradientColor=none;" vertex="1" parent="1">
          <mxGeometry x="330.5" y="200" width="69" height="70" as="geometry" />
        </mxCell>
        <mxCell id="oB71KDWY1GNKsySMPf54-22" style="edgeStyle=orthogonalEdgeStyle;rounded=0;orthogonalLoop=1;jettySize=auto;html=1;exitX=0.75;exitY=1;exitDx=0;exitDy=0;exitPerimeter=0;entryX=0.5;entryY=0;entryDx=0;entryDy=0;" edge="1" parent="1" source="oB71KDWY1GNKsySMPf54-4" target="oB71KDWY1GNKsySMPf54-14">
          <mxGeometry relative="1" as="geometry" />
        </mxCell>
        <mxCell id="oB71KDWY1GNKsySMPf54-23" value="/search/title" style="edgeLabel;html=1;align=center;verticalAlign=middle;resizable=0;points=[];" vertex="1" connectable="0" parent="oB71KDWY1GNKsySMPf54-22">
          <mxGeometry x="0.0408" y="3" relative="1" as="geometry">
            <mxPoint as="offset" />
          </mxGeometry>
        </mxCell>
        <mxCell id="oB71KDWY1GNKsySMPf54-4" value="" style="sketch=0;points=[[0,0,0],[0.25,0,0],[0.5,0,0],[0.75,0,0],[1,0,0],[0,1,0],[0.25,1,0],[0.5,1,0],[0.75,1,0],[1,1,0],[0,0.25,0],[0,0.5,0],[0,0.75,0],[1,0.25,0],[1,0.5,0],[1,0.75,0]];outlineConnect=0;fontColor=#232F3E;fillColor=#8C4FFF;strokeColor=#ffffff;dashed=0;verticalLabelPosition=bottom;verticalAlign=top;align=center;html=1;fontSize=12;fontStyle=0;aspect=fixed;shape=mxgraph.aws4.resourceIcon;resIcon=mxgraph.aws4.api_gateway;" vertex="1" parent="1">
          <mxGeometry x="210" y="360" width="78" height="78" as="geometry" />
        </mxCell>
        <mxCell id="oB71KDWY1GNKsySMPf54-5" style="edgeStyle=orthogonalEdgeStyle;rounded=0;orthogonalLoop=1;jettySize=auto;html=1;entryX=0.372;entryY=-0.013;entryDx=0;entryDy=0;entryPerimeter=0;" edge="1" parent="1" source="oB71KDWY1GNKsySMPf54-2" target="oB71KDWY1GNKsySMPf54-4">
          <mxGeometry relative="1" as="geometry" />
        </mxCell>
        <mxCell id="oB71KDWY1GNKsySMPf54-8" value="Rate Limiting&lt;div&gt;Authentication&lt;/div&gt;&lt;div&gt;&lt;br&gt;&lt;/div&gt;" style="text;html=1;align=center;verticalAlign=middle;resizable=0;points=[];autosize=1;strokeColor=none;fillColor=none;" vertex="1" parent="1">
          <mxGeometry x="290" y="353" width="100" height="60" as="geometry" />
        </mxCell>
        <mxCell id="oB71KDWY1GNKsySMPf54-9" value="" style="image;sketch=0;aspect=fixed;html=1;points=[];align=center;fontSize=12;image=img/lib/mscae/Cache_Redis_Product.svg;" vertex="1" parent="1">
          <mxGeometry x="100" y="371" width="50" height="42" as="geometry" />
        </mxCell>
        <mxCell id="oB71KDWY1GNKsySMPf54-10" style="edgeStyle=orthogonalEdgeStyle;rounded=0;orthogonalLoop=1;jettySize=auto;html=1;entryX=0.9;entryY=0.667;entryDx=0;entryDy=0;entryPerimeter=0;" edge="1" parent="1" source="oB71KDWY1GNKsySMPf54-4" target="oB71KDWY1GNKsySMPf54-9">
          <mxGeometry relative="1" as="geometry" />
        </mxCell>
        <mxCell id="oB71KDWY1GNKsySMPf54-11" value="Media Service" style="rounded=0;whiteSpace=wrap;html=1;" vertex="1" parent="1">
          <mxGeometry x="100" y="550" width="120" height="60" as="geometry" />
        </mxCell>
        <mxCell id="oB71KDWY1GNKsySMPf54-12" style="edgeStyle=orthogonalEdgeStyle;rounded=0;orthogonalLoop=1;jettySize=auto;html=1;entryX=0.45;entryY=0.017;entryDx=0;entryDy=0;entryPerimeter=0;" edge="1" parent="1" source="oB71KDWY1GNKsySMPf54-4" target="oB71KDWY1GNKsySMPf54-11">
          <mxGeometry relative="1" as="geometry" />
        </mxCell>
        <mxCell id="oB71KDWY1GNKsySMPf54-13" value="/upload" style="edgeLabel;html=1;align=center;verticalAlign=middle;resizable=0;points=[];" vertex="1" connectable="0" parent="oB71KDWY1GNKsySMPf54-12">
          <mxGeometry x="0.0287" y="1" relative="1" as="geometry">
            <mxPoint as="offset" />
          </mxGeometry>
        </mxCell>
        <mxCell id="oB71KDWY1GNKsySMPf54-14" value="Retriever Service" style="rounded=0;whiteSpace=wrap;html=1;" vertex="1" parent="1">
          <mxGeometry x="305" y="550" width="120" height="60" as="geometry" />
        </mxCell>
        <mxCell id="oB71KDWY1GNKsySMPf54-15" value="FollowService" style="rounded=0;whiteSpace=wrap;html=1;" vertex="1" parent="1">
          <mxGeometry x="490" y="550" width="120" height="60" as="geometry" />
        </mxCell>
        <mxCell id="oB71KDWY1GNKsySMPf54-16" value="News Feed Service" style="rounded=0;whiteSpace=wrap;html=1;" vertex="1" parent="1">
          <mxGeometry x="670" y="550" width="120" height="60" as="geometry" />
        </mxCell>
        <mxCell id="oB71KDWY1GNKsySMPf54-24" style="edgeStyle=orthogonalEdgeStyle;rounded=0;orthogonalLoop=1;jettySize=auto;html=1;exitX=1;exitY=0.75;exitDx=0;exitDy=0;exitPerimeter=0;entryX=0.608;entryY=-0.033;entryDx=0;entryDy=0;entryPerimeter=0;" edge="1" parent="1" source="oB71KDWY1GNKsySMPf54-4" target="oB71KDWY1GNKsySMPf54-15">
          <mxGeometry relative="1" as="geometry" />
        </mxCell>
        <mxCell id="oB71KDWY1GNKsySMPf54-25" value="/follow/user1" style="edgeLabel;html=1;align=center;verticalAlign=middle;resizable=0;points=[];" vertex="1" connectable="0" parent="oB71KDWY1GNKsySMPf54-24">
          <mxGeometry x="0.0333" y="1" relative="1" as="geometry">
            <mxPoint y="1" as="offset" />
          </mxGeometry>
        </mxCell>
        <mxCell id="oB71KDWY1GNKsySMPf54-26" style="edgeStyle=orthogonalEdgeStyle;rounded=0;orthogonalLoop=1;jettySize=auto;html=1;entryX=0.367;entryY=0.05;entryDx=0;entryDy=0;entryPerimeter=0;" edge="1" parent="1" source="oB71KDWY1GNKsySMPf54-8" target="oB71KDWY1GNKsySMPf54-16">
          <mxGeometry relative="1" as="geometry" />
        </mxCell>
        <mxCell id="oB71KDWY1GNKsySMPf54-27" value="/newsFeed&lt;div&gt;&lt;br&gt;&lt;/div&gt;" style="edgeLabel;html=1;align=center;verticalAlign=middle;resizable=0;points=[];" vertex="1" connectable="0" parent="oB71KDWY1GNKsySMPf54-26">
          <mxGeometry x="0.5506" y="-1" relative="1" as="geometry">
            <mxPoint as="offset" />
          </mxGeometry>
        </mxCell>
        <mxCell id="oB71KDWY1GNKsySMPf54-31" style="edgeStyle=orthogonalEdgeStyle;rounded=0;orthogonalLoop=1;jettySize=auto;html=1;entryX=0.5;entryY=0;entryDx=0;entryDy=0;" edge="1" parent="1" source="oB71KDWY1GNKsySMPf54-28" target="oB71KDWY1GNKsySMPf54-30">
          <mxGeometry relative="1" as="geometry" />
        </mxCell>
        <mxCell id="oB71KDWY1GNKsySMPf54-28" value="" style="sketch=0;aspect=fixed;pointerEvents=1;shadow=0;dashed=0;html=1;strokeColor=none;labelPosition=center;verticalLabelPosition=bottom;verticalAlign=top;align=center;fillColor=#00188D;shape=mxgraph.azure.queue_generic" vertex="1" parent="1">
          <mxGeometry x="120" y="700" width="110" height="33" as="geometry" />
        </mxCell>
        <mxCell id="oB71KDWY1GNKsySMPf54-29" style="edgeStyle=orthogonalEdgeStyle;rounded=0;orthogonalLoop=1;jettySize=auto;html=1;entryX=0.636;entryY=-0.061;entryDx=0;entryDy=0;entryPerimeter=0;" edge="1" parent="1" source="oB71KDWY1GNKsySMPf54-18" target="oB71KDWY1GNKsySMPf54-28">
          <mxGeometry relative="1" as="geometry" />
        </mxCell>
        <mxCell id="oB71KDWY1GNKsySMPf54-30" value="Uploader Workers" style="rounded=0;whiteSpace=wrap;html=1;" vertex="1" parent="1">
          <mxGeometry x="115" y="800" width="120" height="60" as="geometry" />
        </mxCell>
        <mxCell id="oB71KDWY1GNKsySMPf54-34" value="Amazon S3" style="sketch=0;outlineConnect=0;fontColor=#232F3E;gradientColor=none;strokeColor=#ffffff;fillColor=#232F3E;dashed=0;verticalLabelPosition=middle;verticalAlign=bottom;align=center;html=1;whiteSpace=wrap;fontSize=10;fontStyle=1;spacing=3;shape=mxgraph.aws4.productIcon;prIcon=mxgraph.aws4.s3;" vertex="1" parent="1">
          <mxGeometry x="70" y="960" width="80" height="100" as="geometry" />
        </mxCell>
        <mxCell id="oB71KDWY1GNKsySMPf54-36" value="" style="image;aspect=fixed;html=1;points=[];align=center;fontSize=12;image=img/lib/azure2/databases/Azure_Database_PostgreSQL_Server_Group.svg;" vertex="1" parent="1">
          <mxGeometry x="219" y="976" width="60" height="68" as="geometry" />
        </mxCell>
        <mxCell id="oB71KDWY1GNKsySMPf54-38" value="Metadata in SQL ,&lt;div&gt;Read Replicas&lt;/div&gt;&lt;div&gt;&lt;br&gt;&lt;/div&gt;" style="text;html=1;align=center;verticalAlign=middle;resizable=0;points=[];autosize=1;strokeColor=none;fillColor=none;" vertex="1" parent="1">
          <mxGeometry x="184" y="1033" width="120" height="60" as="geometry" />
        </mxCell>
        <mxCell id="oB71KDWY1GNKsySMPf54-42" style="edgeStyle=orthogonalEdgeStyle;rounded=0;orthogonalLoop=1;jettySize=auto;html=1;" edge="1" parent="1" source="oB71KDWY1GNKsySMPf54-39">
          <mxGeometry relative="1" as="geometry">
            <mxPoint x="90" y="1190" as="targetPoint" />
          </mxGeometry>
        </mxCell>
        <mxCell id="oB71KDWY1GNKsySMPf54-39" value="Images/Media etc" style="text;html=1;align=center;verticalAlign=middle;resizable=0;points=[];autosize=1;strokeColor=none;fillColor=none;" vertex="1" parent="1">
          <mxGeometry x="30" y="1048" width="120" height="30" as="geometry" />
        </mxCell>
        <mxCell id="oB71KDWY1GNKsySMPf54-40" value="" style="editableCssRules=.*;html=1;shape=image;verticalLabelPosition=bottom;labelBackgroundColor=#ffffff;verticalAlign=top;aspect=fixed;imageAspect=0;image=data:image/svg+xml,PHN2ZyB4bWxucz0iaHR0cDovL3d3dy53My5vcmcvMjAwMC9zdmciIHhtbG5zOnY9Imh0dHBzOi8vdmVjdGEuaW8vbmFubyIgd2lkdGg9IjIwIiBoZWlnaHQ9IjIwIiB2aWV3Qm94PSIwIDAgMjAgMjAiPiYjeGE7CTxzdHlsZSB0eXBlPSJ0ZXh0L2NzcyI+JiN4YTsJLnN0MHtmaWxsOiM0Mjg1ZjQ7fSYjeGE7CS5zdDF7ZmlsbDojNjY5ZGY2O30mI3hhOwkuc3Qye2ZpbGw6I2FlY2JmYTt9JiN4YTsJPC9zdHlsZT4mI3hhOwk8cGF0aCBjbGFzcz0ic3QxIiBkPSJNMTMuMTMgNS42M1YzLjIxTDEwIDB2Mi40MXptMy43NSA3LjVMMjAgMTBoLTIuNWwtMy4xMiAzLjEzem0tMTMuNzUgMEwwIDEwaDIuNWwzLjEzIDMuMTN6bTEwIDEuMjV2Mi40MUwxMCAyMHYtMi40MXoiIGZpbGwtcnVsZT0iZXZlbm9kZCIvPiYjeGE7CTxwYXRoIGNsYXNzPSJzdDIiIGQ9Ik02Ljg4IDUuNjNMMTAgMi40MVYwTDYuODggMy4yMXpNMTcuNSAxMEgyMGwtMy4xMi0zLjEyaC0yLjV6bS0xNSAwSDBsMy4xMy0zLjEyaDIuNXptNC4zOCA0LjM4TDEwIDE3LjU5VjIwbC0zLjEyLTMuMjF6bTAtNy41aDYuMjV2Ni4yNUg2Ljg4eiIgZmlsbC1ydWxlPSJldmVub2RkIi8+JiN4YTsJPHBhdGggY2xhc3M9InN0MSIgZD0iTTYuODggMTMuMTNsNi4yNS02LjI1djYuMjV6IiBmaWxsLXJ1bGU9ImV2ZW5vZGQiLz4mI3hhOwk8cGF0aCBjbGFzcz0ic3QwIiBkPSJNMTAgMTBsMy4xMy0zLjEydjYuMjV6IiBmaWxsLXJ1bGU9ImV2ZW5vZGQiLz4mI3hhOzwvc3ZnPg==;" vertex="1" parent="1">
          <mxGeometry x="80" y="1200" width="40" height="40" as="geometry" />
        </mxCell>
        <mxCell id="oB71KDWY1GNKsySMPf54-41" value="CDN&amp;nbsp;" style="text;html=1;align=center;verticalAlign=middle;resizable=0;points=[];autosize=1;strokeColor=none;fillColor=none;" vertex="1" parent="1">
          <mxGeometry x="65" y="1248" width="50" height="30" as="geometry" />
        </mxCell>
        <mxCell id="oB71KDWY1GNKsySMPf54-43" style="edgeStyle=orthogonalEdgeStyle;rounded=0;orthogonalLoop=1;jettySize=auto;html=1;exitX=0.5;exitY=1;exitDx=0;exitDy=0;entryX=0.917;entryY=0.588;entryDx=0;entryDy=0;entryPerimeter=0;" edge="1" parent="1" source="oB71KDWY1GNKsySMPf54-19" target="oB71KDWY1GNKsySMPf54-36">
          <mxGeometry relative="1" as="geometry">
            <Array as="points">
              <mxPoint x="391" y="980" />
              <mxPoint x="330" y="980" />
              <mxPoint x="330" y="1016" />
            </Array>
          </mxGeometry>
        </mxCell>
        <mxCell id="oB71KDWY1GNKsySMPf54-49" style="edgeStyle=orthogonalEdgeStyle;rounded=0;orthogonalLoop=1;jettySize=auto;html=1;" edge="1" parent="1" source="oB71KDWY1GNKsySMPf54-48" target="oB71KDWY1GNKsySMPf54-36">
          <mxGeometry relative="1" as="geometry">
            <Array as="points">
              <mxPoint x="420" y="885" />
              <mxPoint x="420" y="1010" />
            </Array>
          </mxGeometry>
        </mxCell>
        <mxCell id="oB71KDWY1GNKsySMPf54-48" value="" style="shape=mxgraph.cisco.storage.web_cluster;html=1;pointerEvents=1;dashed=0;fillColor=#036897;strokeColor=#ffffff;strokeWidth=2;verticalLabelPosition=bottom;verticalAlign=top;align=center;outlineConnect=0;" vertex="1" parent="1">
          <mxGeometry x="560" y="832" width="186" height="106" as="geometry" />
        </mxCell>
        <mxCell id="oB71KDWY1GNKsySMPf54-53" style="edgeStyle=orthogonalEdgeStyle;rounded=0;orthogonalLoop=1;jettySize=auto;html=1;entryX=1.013;entryY=0.27;entryDx=0;entryDy=0;entryPerimeter=0;" edge="1" parent="1" source="oB71KDWY1GNKsySMPf54-21" target="oB71KDWY1GNKsySMPf54-34">
          <mxGeometry relative="1" as="geometry">
            <Array as="points">
              <mxPoint x="760" y="1110" />
              <mxPoint x="350" y="1110" />
              <mxPoint x="350" y="1120" />
              <mxPoint x="151" y="1120" />
            </Array>
          </mxGeometry>
        </mxCell>
        <mxCell id="oB71KDWY1GNKsySMPf54-54" value="Scalable&lt;div&gt;&lt;br&gt;&lt;/div&gt;" style="text;html=1;align=center;verticalAlign=middle;resizable=0;points=[];autosize=1;strokeColor=none;fillColor=none;" vertex="1" parent="1">
          <mxGeometry x="45" y="820" width="70" height="40" as="geometry" />
        </mxCell>
        <mxCell id="oB71KDWY1GNKsySMPf54-55" value="Cache is preheated." style="text;html=1;align=center;verticalAlign=middle;resizable=0;points=[];autosize=1;strokeColor=none;fillColor=none;" vertex="1" parent="1">
          <mxGeometry x="555" y="938" width="130" height="30" as="geometry" />
        </mxCell>
      </root>
    </mxGraphModel>
  </diagram>
</mxfile>
